<svg width="100" height="100" viewBox="0 0 100 100" fill="none" xmlns="http://www.w3.org/2000/svg">
<rect width="100" height="100" rx="10" fill="white"/>
<g filter="url(#filter0_d_1_2)">
<path fill-rule="evenodd" clip-rule="evenodd" d="M34 7L15 7C12.1997 7 10.7996 7 9.73005 7.54497C8.78924 8.02433 8.02433 8.78924 7.54497 9.73005C7 10.7996 7 12.1997 7 15V84C7 86.8003 7 88.2004 7.54497 89.27C8.02433 90.2108 8.78924 90.9757 9.73005 91.455C10.7996 92 12.1997 92 15 92H34H84C86.8003 92 88.2004 92 89.27 91.455C90.2108 90.9757 90.9757 90.2108 91.455 89.27C92 88.2004 92 86.8003 92 84V15C92 12.1997 92 10.7996 91.455 9.73005C90.9757 8.78924 90.2108 8.02433 89.27 7.54497C88.2004 7 86.8003 7 84 7L34 7ZM89.5 14.3C89.5 12.6198 89.5 11.7798 89.173 11.138C88.8854 10.5735 88.4265 10.1146 87.862 9.82698C87.2202 9.5 86.3802 9.5 84.7 9.5H38.8C37.1198 9.5 36.2798 9.5 35.638 9.82698C35.0735 10.1146 34.6146 10.5735 34.327 11.138C34 11.7798 34 12.6198 34 14.3V84.7C34 86.3802 34 87.2202 34.327 87.862C34.6146 88.4265 35.0735 88.8854 35.638 89.173C36.2798 89.5 37.1198 89.5 38.8 89.5H84.7C86.3802 89.5 87.2202 89.5 87.862 89.173C88.4265 88.8854 88.8854 88.4265 89.173 87.862C89.5 87.2202 89.5 86.3802 89.5 84.7V14.3Z" fill="#FBFBFB"/>
<path d="M34 14.3C34 12.6198 34 11.7798 34.327 11.138C34.6146 10.5735 35.0735 10.1146 35.638 9.82698C36.2798 9.5 37.1198 9.5 38.8 9.5H84.7C86.3802 9.5 87.2202 9.5 87.862 9.82698C88.4265 10.1146 88.8854 10.5735 89.173 11.138C89.5 11.7798 89.5 12.6198 89.5 14.3V84.7C89.5 86.3802 89.5 87.2202 89.173 87.862C88.8854 88.4265 88.4265 88.8854 87.862 89.173C87.2202 89.5 86.3802 89.5 84.7 89.5H38.8C37.1198 89.5 36.2798 89.5 35.638 89.173C35.0735 88.8854 34.6146 88.4265 34.327 87.862C34 87.2202 34 86.3802 34 84.7V14.3Z" fill="#F3F3F3"/>
<path d="M38.8 10H84.7C85.5483 10 86.1545 10.0004 86.6297 10.0392C87.099 10.0776 87.3963 10.1509 87.635 10.2725C88.1054 10.5122 88.4878 10.8946 88.7275 11.365C88.8491 11.6037 88.9224 11.901 88.9608 12.3703C88.9996 12.8455 89 13.4517 89 14.3V84.7C89 85.5483 88.9996 86.1545 88.9608 86.6297C88.9224 87.099 88.8491 87.3963 88.7275 87.635C88.4878 88.1054 88.1054 88.4878 87.635 88.7275C87.3963 88.8491 87.099 88.9224 86.6297 88.9608C86.1545 88.9996 85.5483 89 84.7 89H38.8C37.9517 89 37.3455 88.9996 36.8703 88.9608C36.401 88.9224 36.1037 88.8491 35.865 88.7275C35.3946 88.4878 35.0122 88.1054 34.7725 87.635C34.6509 87.3963 34.5776 87.099 34.5392 86.6297C34.5004 86.1545 34.5 85.5483 34.5 84.7V14.3C34.5 13.4517 34.5004 12.8455 34.5392 12.3703C34.5776 11.901 34.6509 11.6037 34.7725 11.365C35.0122 10.8946 35.3946 10.5122 35.865 10.2725C36.1037 10.1509 36.401 10.0776 36.8703 10.0392C37.3455 10.0004 37.9517 10 38.8 10ZM84.7 9H38.8H38.7778C37.9565 9 37.3095 8.99999 36.7889 9.04253C36.2577 9.08593 35.8141 9.17609 35.411 9.38148C34.7525 9.71703 34.217 10.2525 33.8815 10.911C33.6761 11.3141 33.5859 11.7577 33.5425 12.2889C33.5 12.8095 33.5 13.4565 33.5 14.2778V14.3V84.7V84.7222C33.5 85.5435 33.5 86.1905 33.5425 86.7111C33.5859 87.2423 33.6761 87.6859 33.8815 88.089C34.217 88.7475 34.7525 89.283 35.411 89.6185C35.8141 89.8239 36.2577 89.9141 36.7889 89.9575C37.3095 90 37.9565 90 38.7778 90H38.8H84.7H84.7222C85.5435 90 86.1905 90 86.7111 89.9575C87.2423 89.9141 87.6859 89.8239 88.089 89.6185C88.7475 89.283 89.283 88.7475 89.6185 88.089C89.8239 87.6859 89.9141 87.2423 89.9575 86.7111C90 86.1905 90 85.5435 90 84.7222V84.7V14.3V14.2778C90 13.4565 90 12.8095 89.9575 12.2889C89.9141 11.7577 89.8239 11.3141 89.6185 10.911C89.283 10.2525 88.7475 9.71703 88.089 9.38148C87.6859 9.17609 87.2423 9.08593 86.7111 9.04253C86.1905 8.99999 85.5435 9 84.7222 9H84.7ZM91.5 15V84C91.5 85.4084 91.4996 86.4346 91.4335 87.2433C91.3679 88.0461 91.2401 88.5904 91.0095 89.043C90.5781 89.8897 89.8897 90.5781 89.043 91.0095C88.5904 91.2401 88.0461 91.3679 87.2433 91.4335C86.4346 91.4996 85.4084 91.5 84 91.5H34H15C13.5916 91.5 12.5654 91.4996 11.7567 91.4335C10.9539 91.3679 10.4096 91.2401 9.95704 91.0095C9.11031 90.5781 8.4219 89.8897 7.99047 89.043C7.75989 88.5904 7.63205 88.0461 7.56646 87.2433C7.50039 86.4346 7.5 85.4084 7.5 84V15C7.5 13.5916 7.50039 12.5654 7.56646 11.7567C7.63205 10.9539 7.75989 10.4096 7.99047 9.95704C8.4219 9.11031 9.11031 8.4219 9.95704 7.99047C10.4096 7.75989 10.9539 7.63205 11.7567 7.56646C12.5654 7.50039 13.5916 7.5 15 7.5H34H84C85.4084 7.5 86.4346 7.50039 87.2433 7.56646C88.0461 7.63205 88.5904 7.75989 89.043 7.99047C89.8897 8.4219 90.5781 9.11031 91.0095 9.95704C91.2401 10.4096 91.3679 10.9539 91.4335 11.7567C91.4996 12.5654 91.5 13.5916 91.5 15Z" stroke="black"/>
</g>
<path d="M50 50H62M74 50H62M62 50V38M62 50V62" stroke="black" stroke-linecap="round"/>
<defs>
<filter id="filter0_d_1_2" x="3" y="4" width="93" height="93" filterUnits="userSpaceOnUse" color-interpolation-filters="sRGB">
<feFlood flood-opacity="0" result="BackgroundImageFix"/>
<feColorMatrix in="SourceAlpha" type="matrix" values="0 0 0 0 0 0 0 0 0 0 0 0 0 0 0 0 0 0 127 0" result="hardAlpha"/>
<feOffset dy="1"/>
<feGaussianBlur stdDeviation="2"/>
<feComposite in2="hardAlpha" operator="out"/>
<feColorMatrix type="matrix" values="0 0 0 0 0 0 0 0 0 0 0 0 0 0 0 0 0 0 0.25 0"/>
<feBlend mode="normal" in2="BackgroundImageFix" result="effect1_dropShadow_1_2"/>
<feBlend mode="normal" in="SourceGraphic" in2="effect1_dropShadow_1_2" result="shape"/>
</filter>
</defs>
</svg>
